<?xml version="1.0" encoding="UTF-8"?>
<!-- Created with Inkscape (http://www.inkscape.org/) -->
<svg width="150mm" height="150mm" version="1.1" viewBox="0 0 150 150" xmlns="http://www.w3.org/2000/svg">
 <g transform="translate(-98.261 -69.517)" stroke="#fff" stroke-linecap="round" stroke-linejoin="bevel" stroke-width="2.6458">
  <g fill-rule="evenodd">
   <path d="m188 104.6a22.919 40.431 28.169 0 0-4.0721 17.114 54.591 29.205 55.782 0 1 27.548 10.768 30.192 57.715 76.594 0 0-0.0212-12.971 30.192 57.715 76.594 0 0-23.454-14.911z" fill="#d56a11" style="paint-order:normal"/>
   <path d="m183.91 121.72a54.591 29.205 55.782 0 0-16.238 17.526 54.591 29.205 55.782 0 0 2.9316 23.54 30.192 57.715 76.594 0 0 32.156-17.82 22.919 40.431 28.169 0 1-14.232-4.4922 22.919 40.431 28.169 0 1-4.6178-18.753z" fill="#ffc107" style="paint-order:normal"/>
   <path d="m183.91 121.73a22.919 40.431 28.169 0 0 4.6194 18.746 22.919 40.431 28.169 0 0 14.291 4.4731 30.192 57.715 76.594 0 0 8.6517-12.458 54.591 29.205 55.782 0 0-27.562-10.761z" style="paint-order:normal"/>
  </g>
  <g fill-rule="evenodd">
   <path d="m170.61 162.79a54.591 29.205 55.782 0 1-2.9316-23.54 54.591 29.205 55.782 0 1 16.236-17.518 22.919 40.431 28.169 0 1 4.0845-17.123 30.192 57.715 76.594 0 0-43.855 2.8339 30.192 57.715 76.594 0 0-43.261 44.016 30.192 57.715 76.594 0 0 67.309 12.077 30.192 57.715 76.594 0 0 2.4174-0.74569z" fill="#073984" style="paint-order:normal"/>
   <path d="m217.15 137.42a22.919 40.431 28.169 0 1-14.332 7.5303 30.192 57.715 76.594 0 1-32.215 17.839 54.591 29.205 55.782 0 0 30.707 44.058 54.591 29.205 55.782 0 0 43.815-6.7448 54.591 29.205 55.782 0 0-27.975-62.682z" fill="#dc3545" style="paint-order:normal"/>
   <path d="m223.25 70.856a22.919 40.431 28.169 0 0-27.158 18.831 22.919 40.431 28.169 0 0-8.0936 14.918 30.192 57.715 76.594 0 1 23.454 14.911 30.192 57.715 76.594 0 1 0.0227 12.973 54.591 29.205 55.782 0 1 0.0165 0.0124 54.591 29.205 55.782 0 1 5.6642 4.9155 22.919 40.431 28.169 0 0 9.9498-10.929 22.919 40.431 28.169 0 0 7.5587-50.787 22.919 40.431 28.169 0 0-11.415-4.8452z" fill="#106e7d" style="paint-order:normal"/>
  </g>
  <path d="m211.48 132.49a30.192 57.715 76.594 0 1-8.6388 12.431 22.919 40.431 28.169 0 0 14.311-7.5096 54.591 29.205 55.782 0 0-5.6642-4.9155 54.591 29.205 55.782 0 0-8e-3 -6e-3z" fill="#5d37a2" style="paint-order:normal"/>
 </g>
</svg>
