<?xml version="1.0" encoding="UTF-8" standalone="no"?>
<!-- Created with Inkscape (http://www.inkscape.org/) -->

<svg
   width="1200"
   height="630"
   viewBox="0 0 317.49997 166.68749"
   version="1.1"
   id="svg420"
   inkscape:version="1.4.2 (ebf0e940d0, 2025-05-08)"
   sodipodi:docname="og.svg"
   inkscape:export-filename="/home/jola/projects/eunoia/images/og.png"
   inkscape:export-xdpi="96"
   inkscape:export-ydpi="96"
   xmlns:inkscape="http://www.inkscape.org/namespaces/inkscape"
   xmlns:sodipodi="http://sodipodi.sourceforge.net/DTD/sodipodi-0.dtd"
   xmlns="http://www.w3.org/2000/svg"
   xmlns:svg="http://www.w3.org/2000/svg">
  <sodipodi:namedview
     id="namedview422"
     pagecolor="#ffffff"
     bordercolor="#666666"
     borderopacity="1.0"
     inkscape:showpageshadow="2"
     inkscape:pageopacity="0.0"
     inkscape:pagecheckerboard="false"
     inkscape:deskcolor="#d1d1d1"
     inkscape:document-units="mm"
     showgrid="false"
     inkscape:zoom="0.30353045"
     inkscape:cx="711.62547"
     inkscape:cy="182.84821"
     inkscape:window-width="1920"
     inkscape:window-height="1170"
     inkscape:window-x="0"
     inkscape:window-y="0"
     inkscape:window-maximized="0"
     inkscape:current-layer="layer1"
     showborder="true"
     inkscape:antialias-rendering="true"
     inkscape:export-bgcolor="#ffffffff" />
  <defs
     id="defs417" />
  <g
     inkscape:label="Layer 1"
     inkscape:groupmode="layer"
     id="layer1"
     transform="translate(-98.26061,-69.516797)">
    <g
       id="g1"
       transform="matrix(0.86162725,0,0,0.86162725,47.548944,24.663465)">
      <path
         id="ellipse2164"
         style="fill:#d56a11;fill-opacity:1;fill-rule:evenodd;stroke:#ffffff;stroke-width:2.2859;stroke-linecap:round;stroke-linejoin:bevel;stroke-dasharray:none;stroke-opacity:1;paint-order:normal"
         d="m 340.97692,119.46508 a 19.801117,34.930898 28.168777 0 0 -3.51813,14.78557 47.164638,25.231956 55.781923 0 1 23.80013,9.30343 26.085109,49.863712 76.59446 0 0 -0.0183,-11.20671 26.085109,49.863712 76.59446 0 0 -20.26369,-12.88229 z" />
      <path
         id="ellipse2155"
         style="fill:#ffc107;fill-opacity:1;fill-rule:evenodd;stroke:#ffffff;stroke-width:2.2859;stroke-linecap:round;stroke-linejoin:bevel;stroke-dasharray:none;stroke-opacity:1;paint-order:normal"
         d="m 337.44941,134.25198 a 47.164638,25.231956 55.781923 0 0 -14.02881,15.14141 47.164638,25.231956 55.781923 0 0 2.53279,20.3378 26.085109,49.863713 76.59446 0 0 27.78126,-15.39588 19.801116,34.930898 28.168777 0 1 -12.29563,-3.88113 19.801116,34.930898 28.168777 0 1 -3.98961,-16.2022 z" />
      <path
         style="fill:#000000;fill-opacity:1;fill-rule:evenodd;stroke:#ffffff;stroke-width:2.2859;stroke-linecap:round;stroke-linejoin:bevel;stroke-dasharray:none;stroke-opacity:1;paint-order:normal"
         d="m 337.44807,134.25869 a 19.801117,34.930898 28.168777 0 0 3.99095,16.1955 19.801117,34.930898 28.168777 0 0 12.34653,3.86459 26.085109,49.863712 76.59446 0 0 7.47472,-10.76336 47.164638,25.231956 55.781923 0 0 -23.8122,-9.29673 z"
         id="path4440" />
      <path
         style="fill:#073984;fill-rule:evenodd;stroke:#ffffff;stroke-width:2.2859;stroke-linecap:round;stroke-linejoin:bevel;stroke-dasharray:none;stroke-opacity:1;paint-order:normal"
         d="m 325.95339,169.73119 a 47.164638,25.231956 55.781923 0 1 -2.53279,-20.33779 47.164638,25.231956 55.781923 0 1 14.02747,-15.13471 19.801117,34.930898 28.168777 0 1 3.52885,-14.79361 26.085109,49.863712 76.59446 0 0 -37.88877,2.44841 26.085109,49.863712 76.59446 0 0 -37.37578,38.02807 26.085109,49.863712 76.59446 0 0 58.15246,10.43388 26.085109,49.863712 76.59446 0 0 2.08856,-0.64425 z"
         id="path4438" />
      <path
         style="fill:#dc3545;fill-rule:evenodd;stroke:#ffffff;stroke-width:2.2859;stroke-linecap:round;stroke-linejoin:bevel;stroke-dasharray:none;stroke-opacity:1;paint-order:normal"
         d="m 366.16824,147.81291 a 19.801117,34.930898 28.168777 0 1 -12.38269,6.50587 26.085109,49.863712 76.59446 0 1 -27.83216,15.41241 47.164638,25.231956 55.781923 0 0 26.52938,38.06424 47.164638,25.231956 55.781923 0 0 37.85439,-5.82726 47.164638,25.231956 55.781923 0 0 -24.16892,-54.15526 z"
         id="path4436" />
      <path
         style="fill:#106e7d;fill-rule:evenodd;stroke:#ffffff;stroke-width:2.2859;stroke-linecap:round;stroke-linejoin:bevel;stroke-dasharray:none;stroke-opacity:1;paint-order:normal"
         d="m 371.43251,90.306925 a 19.801117,34.930898 28.168777 0 0 -23.46305,16.269615 19.801117,34.930898 28.168777 0 0 -6.99254,12.88854 26.085109,49.863712 76.59446 0 1 20.2637,12.88229 26.085109,49.863712 76.59446 0 1 0.0196,11.20805 47.164638,25.231956 55.781923 0 1 0.0143,0.0107 47.164638,25.231956 55.781923 0 1 4.89369,4.24678 19.801117,34.930898 28.168777 0 0 8.59623,-9.44229 19.801117,34.930898 28.168777 0 0 6.53044,-43.877645 19.801117,34.930898 28.168777 0 0 -9.86239,-4.18605 z"
         id="ellipse2148" />
      <path
         id="path1147-3"
         style="fill:#5d37a2;fill-rule:nonzero;stroke:#ffffff;stroke-width:2.2859;stroke-linecap:round;stroke-linejoin:bevel;stroke-dasharray:none;stroke-opacity:1;paint-order:normal"
         d="m 361.2674,143.56078 a 26.085109,49.863712 76.59446 0 1 -7.46355,10.74015 19.801117,34.930898 28.168777 0 0 12.36439,-6.48802 47.164638,25.231956 55.781923 0 0 -4.89369,-4.24678 47.164638,25.231956 55.781923 0 0 -0.007,-0.005 z" />
    </g>
    <text
       xml:space="preserve"
       style="font-weight:bold;font-size:35.9989px;font-family:Sans;-inkscape-font-specification:'Sans Bold';text-align:start;writing-mode:lr-tb;direction:ltr;text-anchor:start;fill:#000000;stroke-width:2.99992;stroke-dasharray:2.99992, 17.9995"
       x="130.21144"
       y="164.66481"
       id="text1"><tspan
         sodipodi:role="line"
         id="tspan1"
         style="font-style:normal;font-variant:normal;font-weight:bold;font-stretch:normal;font-family:Rubik;-inkscape-font-specification:'Rubik Bold';stroke-width:2.99992"
         x="130.21144"
         y="164.66481">Eunoia</tspan></text>
  </g>
</svg>
